<svg xmlns="http://www.w3.org/2000/svg" width="1400" height="920" viewBox="0 0 1400 920" role="img" aria-labelledby="title desc">
  <title id="title">Sift extension infographic</title>
  <desc id="desc">Infographic showing Sift scoring feed and web content locally with EmbeddingGemma, then collecting labels and fine-tuning a custom model.</desc>
  <defs>
    <linearGradient id="bg" x1="0" y1="0" x2="1" y2="1">
      <stop offset="0%" stop-color="#050a13"/>
      <stop offset="60%" stop-color="#0b1220"/>
      <stop offset="100%" stop-color="#10172a"/>
    </linearGradient>
    <linearGradient id="hero" x1="0" y1="0" x2="1" y2="0">
      <stop offset="0%" stop-color="#34d399"/>
      <stop offset="50%" stop-color="#38bdf8"/>
      <stop offset="100%" stop-color="#f59e0b"/>
    </linearGradient>
    <linearGradient id="cardBorder" x1="0" y1="0" x2="1" y2="1">
      <stop offset="0%" stop-color="#1f2937"/>
      <stop offset="100%" stop-color="#334155"/>
    </linearGradient>
    <linearGradient id="scoreAxis" x1="0" y1="0" x2="1" y2="0">
      <stop offset="0%" stop-color="#3b82f6"/>
      <stop offset="65%" stop-color="#facc15"/>
      <stop offset="100%" stop-color="#f59e0b"/>
    </linearGradient>
    <pattern id="grid" width="32" height="32" patternUnits="userSpaceOnUse">
      <path d="M 32 0 L 0 0 0 32" fill="none" stroke="#1e293b" stroke-width="1" opacity="0.35"/>
    </pattern>
    <filter id="shadow" x="-20%" y="-20%" width="140%" height="140%">
      <feDropShadow dx="0" dy="8" stdDeviation="10" flood-color="#000" flood-opacity="0.35"/>
    </filter>
  </defs>

  <rect x="0" y="0" width="1400" height="920" fill="url(#bg)"/>
  <rect x="0" y="0" width="1400" height="920" fill="url(#grid)"/>

  <text x="70" y="86" fill="#e2e8f0" font-family="DM Sans, Segoe UI, sans-serif" font-size="52" font-weight="700">Sift: Relevance Scoring That Learns Your Taste</text>
  <text x="70" y="126" fill="#94a3b8" font-family="DM Sans, Segoe UI, sans-serif" font-size="24">Runs locally in Chrome with EmbeddingGemma. Works on Hacker News, Reddit, X, plus optional all-page scoring.</text>
  <rect x="70" y="145" width="980" height="6" rx="3" fill="url(#hero)"/>

  <g filter="url(#shadow)">
    <rect x="70" y="190" width="360" height="420" rx="18" fill="#0f172a" stroke="url(#cardBorder)" stroke-width="2"/>
    <text x="98" y="236" fill="#e2e8f0" font-family="DM Sans, Segoe UI, sans-serif" font-size="28" font-weight="700">Where Sift Works</text>

    <rect x="98" y="266" width="304" height="64" rx="12" fill="#111d33" stroke="#1d4ed8"/>
    <text x="118" y="306" fill="#bfdbfe" font-family="DM Sans, Segoe UI, sans-serif" font-size="24" font-weight="600">Hacker News Feed</text>

    <rect x="98" y="344" width="304" height="64" rx="12" fill="#112236" stroke="#0369a1"/>
    <text x="118" y="384" fill="#bae6fd" font-family="DM Sans, Segoe UI, sans-serif" font-size="24" font-weight="600">Reddit Feed</text>

    <rect x="98" y="422" width="304" height="64" rx="12" fill="#142531" stroke="#0f766e"/>
    <text x="118" y="462" fill="#99f6e4" font-family="DM Sans, Segoe UI, sans-serif" font-size="24" font-weight="600">X Timeline</text>

    <rect x="98" y="500" width="304" height="92" rx="12" fill="#241b10" stroke="#f59e0b"/>
    <text x="118" y="534" fill="#fcd34d" font-family="DM Sans, Segoe UI, sans-serif" font-size="22" font-weight="700">
      <tspan x="118" dy="0">Any Web Page</tspan>
      <tspan x="118" dy="22">(Optional)</tspan>
    </text>
    <text x="118" y="578" fill="#fde68a" font-family="DM Sans, Segoe UI, sans-serif" font-size="17">Title scoring + popup card + badge</text>
  </g>

  <g filter="url(#shadow)">
    <rect x="460" y="160" width="480" height="500" rx="20" fill="#0c1628" stroke="#1f2937" stroke-width="2"/>
    <text x="490" y="210" fill="#e2e8f0" font-family="DM Sans, Segoe UI, sans-serif" font-size="31" font-weight="700">In-Browser Relevance Engine</text>

    <rect x="490" y="236" width="420" height="76" rx="12" fill="#0f2037" stroke="#2563eb"/>
    <text x="512" y="271" fill="#dbeafe" font-family="JetBrains Mono, SFMono-Regular, monospace" font-size="22" font-weight="700">EmbeddingGemma-300M (q4)</text>
    <text x="512" y="294" fill="#93c5fd" font-family="DM Sans, Segoe UI, sans-serif" font-size="17">WebGPU first, WASM fallback</text>

    <text x="490" y="348" fill="#cbd5e1" font-family="DM Sans, Segoe UI, sans-serif" font-size="22">Scores each item against active categories</text>

    <rect x="490" y="368" width="420" height="38" rx="10" fill="url(#scoreAxis)"/>
    <text x="496" y="394" fill="#0f172a" font-family="JetBrains Mono, SFMono-Regular, monospace" font-size="16" font-weight="700">LOW 0.00</text>
    <text x="808" y="394" fill="#0f172a" font-family="JetBrains Mono, SFMono-Regular, monospace" font-size="16" font-weight="700">HIGH 1.00</text>

    <circle cx="545" cy="446" r="6" fill="#34d399"/>
    <text x="562" y="452" fill="#d1fae5" font-family="DM Sans, Segoe UI, sans-serif" font-size="20">Dimming keeps focus on high-signal items</text>

    <circle cx="545" cy="486" r="6" fill="#38bdf8"/>
    <text x="562" y="492" fill="#bae6fd" font-family="DM Sans, Segoe UI, sans-serif" font-size="20">Inspector reveals score band + rationale</text>

    <circle cx="545" cy="526" r="6" fill="#f59e0b"/>
    <text x="562" y="532" fill="#fde68a" font-family="DM Sans, Segoe UI, sans-serif" font-size="20">Thumbs up/down capture training labels</text>

    <rect x="490" y="568" width="420" height="66" rx="12" fill="#101f18" stroke="#065f46"/>
    <text x="512" y="595" fill="#6ee7b7" font-family="DM Sans, Segoe UI, sans-serif" font-size="18" font-weight="700">
      <tspan x="512" dy="0">Private by default: scoring stays local</tspan>
      <tspan x="512" dy="22">No feed data leaves your browser</tspan>
    </text>
  </g>

  <g filter="url(#shadow)">
    <rect x="970" y="190" width="360" height="420" rx="18" fill="#0f172a" stroke="url(#cardBorder)" stroke-width="2"/>
    <text x="998" y="236" fill="#e2e8f0" font-family="DM Sans, Segoe UI, sans-serif" font-size="28" font-weight="700">Why It Matters</text>

    <rect x="998" y="268" width="304" height="86" rx="12" fill="#132033" stroke="#1d4ed8"/>
    <text x="1018" y="303" fill="#dbeafe" font-family="DM Sans, Segoe UI, sans-serif" font-size="22" font-weight="700">Cut Feed Noise Faster</text>
    <text x="1018" y="330" fill="#bfdbfe" font-family="DM Sans, Segoe UI, sans-serif" font-size="17">See what is relevant first, skip the rest.</text>

    <rect x="998" y="370" width="304" height="86" rx="12" fill="#14251f" stroke="#0f766e"/>
    <text x="1018" y="405" fill="#ccfbf1" font-family="DM Sans, Segoe UI, sans-serif" font-size="22" font-weight="700">Personalized by Labels</text>
    <text x="1018" y="432" fill="#99f6e4" font-family="DM Sans, Segoe UI, sans-serif" font-size="17">Your votes shape what gets promoted.</text>

    <rect x="998" y="472" width="304" height="86" rx="12" fill="#241d13" stroke="#d97706"/>
    <text x="1018" y="507" fill="#fef3c7" font-family="DM Sans, Segoe UI, sans-serif" font-size="22" font-weight="700">Bring Your Own Model</text>
    <text x="1018" y="528" fill="#fde68a" font-family="DM Sans, Segoe UI, sans-serif" font-size="16">
      <tspan x="1018" dy="0">Fine-tune, export ONNX,</tspan>
      <tspan x="1018" dy="20">load it in one click.</tspan>
    </text>
  </g>

  <path d="M430 390 L454 390" stroke="#38bdf8" stroke-width="3"/>
  <polygon points="454,390 444,384 444,396" fill="#38bdf8"/>
  <path d="M940 390 L964 390" stroke="#f59e0b" stroke-width="3"/>
  <polygon points="964,390 954,384 954,396" fill="#f59e0b"/>

  <g filter="url(#shadow)">
    <rect x="70" y="670" width="1260" height="200" rx="18" fill="#0b1322" stroke="#243244" stroke-width="2"/>
    <text x="98" y="716" fill="#e2e8f0" font-family="DM Sans, Segoe UI, sans-serif" font-size="29" font-weight="700">Continuous Improvement Loop</text>

    <rect x="98" y="736" width="232" height="102" rx="12" fill="#1b2438" stroke="#334155"/>
    <text x="116" y="770" fill="#cbd5e1" font-family="DM Sans, Segoe UI, sans-serif" font-size="20" font-weight="700">1) Label in UI</text>
    <text x="116" y="792" fill="#94a3b8" font-family="DM Sans, Segoe UI, sans-serif" font-size="14">
      <tspan x="116" dy="0">Thumbs up/down on</tspan>
      <tspan x="116" dy="19">feed items</tspan>
    </text>

    <rect x="356" y="736" width="232" height="102" rx="12" fill="#1b2438" stroke="#334155"/>
    <text x="374" y="770" fill="#cbd5e1" font-family="DM Sans, Segoe UI, sans-serif" font-size="20" font-weight="700">2) Export CSV</text>
    <text x="374" y="792" fill="#94a3b8" font-family="DM Sans, Segoe UI, sans-serif" font-size="14">
      <tspan x="374" dy="0">Anchor + positive</tspan>
      <tspan x="374" dy="19">+ negative</tspan>
    </text>

    <rect x="614" y="736" width="232" height="102" rx="12" fill="#1b2438" stroke="#334155"/>
    <text x="632" y="770" fill="#cbd5e1" font-family="DM Sans, Segoe UI, sans-serif" font-size="20" font-weight="700">3) Train with uv</text>
    <text x="632" y="792" fill="#94a3b8" font-family="JetBrains Mono, SFMono-Regular, monospace" font-size="14">
      <tspan x="632" dy="0">uv run python</tspan>
      <tspan x="632" dy="19">train.py data.csv</tspan>
    </text>

    <rect x="872" y="736" width="232" height="102" rx="12" fill="#1b2438" stroke="#334155"/>
    <text x="890" y="770" fill="#cbd5e1" font-family="DM Sans, Segoe UI, sans-serif" font-size="20" font-weight="700">4) ONNX + Quantize</text>
    <text x="890" y="792" fill="#94a3b8" font-family="DM Sans, Segoe UI, sans-serif" font-size="15">
      <tspan x="890" dy="0">Build browser-ready</tspan>
      <tspan x="890" dy="19">model files</tspan>
    </text>

    <rect x="1130" y="736" width="172" height="102" rx="12" fill="#122a21" stroke="#059669"/>
    <text x="1148" y="770" fill="#d1fae5" font-family="DM Sans, Segoe UI, sans-serif" font-size="20" font-weight="700">5) Reload</text>
    <text x="1148" y="797" fill="#6ee7b7" font-family="DM Sans, Segoe UI, sans-serif" font-size="16">Sharper scoring</text>

    <path d="M331 787 L352 787" stroke="#64748b" stroke-width="2.5"/>
    <polygon points="352,787 345,782 345,792" fill="#64748b"/>
    <path d="M589 787 L610 787" stroke="#64748b" stroke-width="2.5"/>
    <polygon points="610,787 603,782 603,792" fill="#64748b"/>
    <path d="M847 787 L868 787" stroke="#64748b" stroke-width="2.5"/>
    <polygon points="868,787 861,782 861,792" fill="#64748b"/>
    <path d="M1105 787 L1126 787" stroke="#059669" stroke-width="2.5"/>
    <polygon points="1126,787 1119,782 1119,792" fill="#059669"/>
  </g>
</svg>
